<?xml version="1.0" encoding="UTF-8" standalone="no"?>
<svg viewBox="0 0 510.44 554.89001" xmlns="http://www.w3.org/2000/svg" xmlns:xlink="http://www.w3.org/1999/xlink">
<defs>
<filter id="filter3340">
<feGaussianBlur stdDeviation="3.95909"/>
</filter>
<filter id="filter3390">
<feGaussianBlur stdDeviation="10.09393"/>
</filter>
<linearGradient id="linearGradient2254">
<stop offset="0" stop-color="#bedcdc"/>
<stop offset=".5" stop-color="#8e9e9e" stop-opacity=".7415"/>
<stop offset="1" stop-color="#404f5c" stop-opacity=".83922"/>
</linearGradient>
<radialGradient cx="380" cy="389.50504" gradientTransform="matrix(-.10557,-.9309,.99363,-.11268,45.9635,812.42287)" gradientUnits="userSpaceOnUse" id="radialGradient2340" r="148.85715" xlink:href="#linearGradient2254"/>
<radialGradient cx="380" cy="389.50504" gradientTransform="matrix(8.6859486e-2,-.58077,.6221,9.3576286e-2,261.99206,772.77917)" gradientUnits="userSpaceOnUse" id="radialGradient3406" r="148.85715" xlink:href="#linearGradient2254"/>
</defs>
<g transform="translate(-180.65625,-174.35657)">
<path d="m417.4375,175.3125c-2.40761,18.12082-17.91084,32.125-36.6875,32.125-17.82254,1e-005-32.72374-12.59753-36.25-29.375-13.05912,2.8118-25.65303,6.85014-37.6875,11.96875 6.59543,16.77035.1373,36.31297-15.9375,45.59375-14.92546,8.61721-33.38787,5.68118-44.9375-6.0625-8.09997,7.53123-15.63753,15.6906-22.46875,24.40625 14.38109,11.16882 18.67245,31.53809 9.3125,47.75-8.9272,15.46236-27.34017,22.07308-43.65625,16.6875-3.91032,12.02029-6.77907,24.51463-8.46875,37.375 18.74222,1.82534 33.40625,17.62407 33.40625,36.84375 1e-005,18.10476-13.01226,33.16068-30.1875,36.375 1.27795,5.75903 2.75941,11.42917 4.5,17 3.35961-.88443 6.79511-1.29527 10.1875-1.21875 12.5076.28213 24.57292,6.91208 31.28125,18.53125 9.1309,15.8152 5.26366,35.5792-8.28125,46.90625 7.55764,9.9478 15.97857,19.20846 25.15625,27.65625 6.97835-8.45322 17.22796-13.19945 27.78125-13.4375 6.5516-.14778 13.19502,1.45486 19.28125,4.96875 16.87547,9.74303 23.17121,30.78021 14.875,48.0625 11.47456,4.75069 23.45238,8.51948 35.84375,11.1875 3.52626-16.77746 18.42747-29.375 36.25-29.375 18.77665-3e-005 34.27988,14.00417 36.6875,32.125 11.22039-1.52949 22.16481-3.92513 32.75-7.15625-5.53756-16.37811 1.05171-34.93305 16.59375-43.90625 5.53294-3.19444 11.5606-4.78346 17.53125-4.9375 12.00396-.3097 23.78515,5.25309 31.09375,15.5 10.67427-8.07824 20.55433-17.16218 29.5-27.09375-12.83087-11.43588-16.33532-30.69065-7.40625-46.15625 6.70834-11.61918 18.77365-18.24913 31.28125-18.53125 4.98942-.11254 10.05708.79237 14.875,2.78125 4.3232-10.70375 7.78842-21.85142 10.3125-33.34375-16.09754-4.0234-28.03125-18.5974-28.03125-35.9375 3e-005-18.44179 13.50638-33.74143 31.15625-36.5625-2.44861-18.8367-7.39681-36.88211-14.5-53.8125-17.27746,8.27773-38.293,1.99215-48.03125-14.875-9.10417-15.76889-5.26652-35.4694 8.1875-46.8125-8.07675-8.69949-16.87718-16.73656-26.3125-23.96875-11.35627,13.37287-30.98903,17.1753-46.71875,8.09375-14.78347-8.53524-21.4615-25.74519-17.3125-41.5-11.27509-3.57995-22.96024-6.23825-34.96875-7.875zm-28.5625,133.75c1.28143,0 2.54694.02953 3.8125.09375 5.0622.25708 10.0042,1.0271 14.75,2.25 1.18649.3055 2.36843.63807 3.53125,1 2.32555.72436 4.591,1.55919 6.8125,2.5 1.1108.47009 2.20031.9754 3.28125,1.5 .54047.2623 1.09201.53738 1.625.8125 .0745.03819.1444.08656.21875.125 .725.37479 1.4454.75853 2.15625,1.15625 .78266.43999 1.54669.87827 2.3125,1.34375 2.04204,1.24203 4.03069,2.57278 5.9375,4 .7151.5349 1.42909,1.09666 2.125,1.65625 .42748.34454.86163.67751 1.28125,1.03125 .56656.47632 1.10429.97606 1.65625,1.46875 1.03448.92341 2.05194,1.86444 3.03125,2.84375 .63022.63058 1.23675,1.28479 1.84375,1.9375l.03125.03125c.28068.30218.56813.59944.84375.90625 .70735.78739 1.38911,1.58908 2.0625,2.40625l.5625.6875c.56135.69675 1.11987,1.40792 1.65625,2.125 .66839.89519 1.30906,1.79303 1.9375,2.71875 .8779,1.29319 1.73386,2.61892 2.53125,3.96875 .45439.76858.88533,1.55773 1.3125,2.34375 1.14403,2.1051 2.18482,4.24714 3.125,6.46875 .41211.97313.81633,1.9435 1.1875,2.9375 .03791.10148.05627.21081.09375.3125 .32958.89463.6418,1.80824.9375,2.71875 .04063.12504.08501.24967.125.375 .11505.36082.20285.73055.3125,1.09375 .2693.89198.54495,1.78171.78125,2.6875 .06503.24927.125.49972.1875.75 .16007.6401.29417,1.29095.4375,1.9375 .17687.79784.34904,1.59902.5,2.40625 .00788.04215.02345.08282.03125.125 .01339.07232.01807.14636.03125.21875 .16988.93277.3341,1.86797.46875,2.8125 .00897.06297.02243.12448.03125.1875 .02893.20674.03527.41772.0625.625 .11459.87239.2285,1.74339.3125,2.625 .10428,1.09564.19375,2.20385.25,3.3125 .06319,1.25541.09375,2.54148.09375,3.8125 0,2.56286-.12124,5.06624-.375,7.5625-.00104.01026.00104.02099 0,.03125-.12634,1.23766-.28232,2.46853-.46875,3.6875-.00155.01017.00155.02108 0,.03125-.18692,1.2188-.41078,2.42641-.65625,3.625-.00205.01001.00205.02124 0,.03125-.12298.59923-.26393,1.18752-.40625,1.78125-.13757.59506-.28571,1.19175-.4375,1.78125-.00251.00978.00252.02147 0,.03125-.30347,1.17658-.64104,2.34671-1,3.5-.00296.00953.00296.02172 0,.03125-.72181,2.31581-1.56363,4.5999-2.5,6.8125-.94018,2.22161-1.98097,4.36365-3.125,6.46875-.00439.00808.00439.02317 0,.03125-1.14045,2.09669-2.38839,4.12509-3.71875,6.09375-.00488.00723.00489.02402 0,.03125-.66325.98075-1.3544,1.92835-2.0625,2.875-.0051.00682.0051.02443 0,.03125-.70862.9467-1.46679,1.87021-2.21875,2.78125-.00518.00628.00519.02497 0,.03125-3.02474,3.66229-6.39924,7.0389-10.0625,10.0625-3.66903,3.02832-7.63379,5.71218-11.84375,8-2.1051,1.14403-4.27839,2.18482-6.5,3.125s-4.48695,1.77623-6.8125,2.5c-1.16282.36193-2.34476.6945-3.53125,1-4.7458,1.22187-9.6878,1.99315-14.75,2.25-1.26556.06422-2.53107.09375-3.8125.09375s-2.54694-.02953-3.8125-.09375c-5.0622-.25708-10.0042-1.0271-14.75-2.25-1.18649-.3055-2.36843-.63807-3.53125-1-2.32555-.72436-4.591-1.55919-6.8125-2.5s-4.3949-1.98097-6.5-3.125c-1.05249-.57237-2.07273-1.19148-3.09375-1.8125s-2.04048-1.27116-3.03125-1.9375-1.95278-1.3493-2.90625-2.0625c-1.90694-1.42641-3.74076-2.93218-5.5-4.53125-.87406-.79448-1.7272-1.63396-2.5625-2.46875-.84592-.84541-1.66416-1.67732-2.46875-2.5625-.00527-.0058.00527-.02545 0-.03125-.79946-.88004-1.58667-1.76976-2.34375-2.6875s-1.50555-1.85903-2.21875-2.8125-1.39486-1.9178-2.0625-2.90625c-1.3354-1.97612-2.57472-4.0199-3.71875-6.125s-2.18482-4.24714-3.125-6.46875c-.00376-.00888.00375-.02237 0-.03125-.46628-1.10224-.92991-2.21517-1.34375-3.34375-.00338-.00922.00338-.02202 0-.03125-.41674-1.13788-.79437-2.27443-1.15625-3.4375-.35411-1.13771-.66841-2.27781-.96875-3.4375-.02151-.08306-.04128-.16683-.0625-.25-.26945-1.05564-.52632-2.14589-.75-3.21875-.05609-.26964-.1031-.5418-.15625-.8125-.1496-.76056-.31137-1.51258-.4375-2.28125-.06311-.38498-.13034-.7693-.1875-1.15625-.0045-.03042.00446-.06332 0-.09375-.14909-1.01671-.26774-2.03262-.375-3.0625-.01852-.17766-.04524-.35322-.0625-.53125-.10206-1.05377-.16146-2.12084-.21875-3.1875-.00454-.08442-.027-.16551-.03125-.25-.06421-1.26561-.09375-2.53107-.09375-3.8125s.02953-2.54694.09375-3.8125c.06126-1.25301.15495-2.5072.28125-3.75 .00105-.01032-.00105-.02093 0-.03125 .12581-1.23779.28284-2.46839.46875-3.6875 .00156-.01018-.00156-.02107 0-.03125 .1864-1.21894.41129-2.42627.65625-3.625 .00204-.00996-.00204-.02129 0-.03125 .24545-1.1986.54127-2.38564.84375-3.5625 .0025-.00972-.00251-.02153 0-.03125 .30296-1.17673.64153-2.34655 1-3.5 .00293-.00943-.00294-.02182 0-.03125 .36188-1.16278.73951-2.29996 1.15625-3.4375 .31226-.85229.65771-1.69389 1-2.53125 .03888-.09504.08574-.18642.125-.28125 .16826-.40679.32476-.81563.5-1.21875 .27026-.62099.55708-1.23175.84375-1.84375 .19638-.41972.38979-.83459.59375-1.25 .44925-.914.92038-1.82471 1.40625-2.71875 .00432-.00794-.00432-.02331 0-.03125 .57195-1.05249 1.16068-2.07273 1.78125-3.09375 .62508-1.02839 1.26469-2.03637 1.9375-3.03125 .66286-.98093 1.35478-1.92816 2.0625-2.875 .00488-.00653-.00489-.02472 0-.03125 .70825-.94688 1.46715-1.87002 2.21875-2.78125 .00499-.00605-.00499-.0252 0-.03125 .75708-.91726 1.54429-1.80795 2.34375-2.6875 2.3986-2.63887 4.96677-5.10355 7.71875-7.375 3.66903-3.02832 7.63379-5.71218 11.84375-8 2.1051-1.14403 4.27839-2.18482 6.5-3.125s4.48695-1.77623 6.8125-2.5c1.16282-.36193 2.34476-.6945 3.53125-1 4.7458-1.22187 9.6878-1.99315 14.75-2.25 1.26556-.06422 2.53107-.09375 3.8125-.09375z" filter="url(#filter3390)" opacity=".88485" transform="matrix(.95883,0,0,1.00459,28.86538,22.52426)"/>
<path d="m430.29465,199.59821c-2.40761,18.12082-17.91084,32.125-36.6875,32.125-17.82254,1e-005-32.72374-12.59753-36.25-29.375-13.05912,2.8118-25.65303,6.85014-37.6875,11.96875 6.59543,16.77035.1373,36.31297-15.9375,45.59375-14.92546,8.61721-33.38787,5.68118-44.9375-6.0625-8.09997,7.53123-15.63753,15.6906-22.46875,24.40625 14.38109,11.16882 18.67245,31.53809 9.3125,47.75-8.9272,15.46236-27.34017,22.07308-43.65625,16.6875-3.91032,12.02029-6.77907,24.51463-8.46875,37.375 18.74222,1.82534 33.40625,17.62407 33.40625,36.84375 1e-005,18.10476-13.01226,33.16068-30.1875,36.375 1.27795,5.75903 2.75941,11.42917 4.5,17 3.35961-.88443 6.79511-1.29527 10.1875-1.21875 12.5076.28213 24.57292,6.91208 31.28125,18.53125 9.1309,15.8152 5.26366,35.5792-8.28125,46.90625 7.55764,9.9478 15.97857,19.20846 25.15625,27.65625 6.97835-8.45322 17.22796-13.19945 27.78125-13.4375 6.5516-.14778 13.19502,1.45486 19.28125,4.96875 16.87547,9.74303 23.17121,30.78021 14.875,48.0625 11.47456,4.75069 23.45238,8.51948 35.84375,11.1875 3.52626-16.77746 18.42747-29.375 36.25-29.375 18.77665-3e-005 34.27988,14.00417 36.6875,32.125 11.22039-1.52949 22.16481-3.92513 32.75-7.15625-5.53756-16.37811 1.05171-34.93305 16.59375-43.90625 5.53294-3.19444 11.5606-4.78346 17.53125-4.9375 12.00396-.3097 23.78515,5.25309 31.09375,15.5 10.67427-8.07824 20.55433-17.16218 29.5-27.09375-12.83087-11.43588-16.33532-30.69065-7.40625-46.15625 6.70834-11.61918 18.77365-18.24913 31.28125-18.53125 4.98942-.11254 10.05708.79237 14.875,2.78125 4.3232-10.70375 7.78842-21.85142 10.3125-33.34375-16.09754-4.0234-28.03125-18.5974-28.03125-35.9375 3e-005-18.44179 13.50638-33.74143 31.15625-36.5625-2.44861-18.8367-7.39681-36.88211-14.5-53.8125-17.27746,8.27773-38.293,1.99215-48.03125-14.875-9.10417-15.76889-5.26652-35.4694 8.1875-46.8125-8.07675-8.69949-16.87718-16.73656-26.3125-23.96875-11.35627,13.37287-30.98903,17.1753-46.71875,8.09375-14.78347-8.53524-21.4615-25.74519-17.3125-41.5-11.27509-3.57995-22.96024-6.23825-34.96875-7.875zm-28.5625,133.75c1.28143,0 2.54694.02953 3.8125.09375 5.0622.25708 10.0042,1.0271 14.75,2.25 1.18649.3055 2.36843.63807 3.53125,1 2.32555.72436 4.591,1.55919 6.8125,2.5 1.1108.47009 2.20031.9754 3.28125,1.5 .54047.2623 1.09201.53738 1.625.8125 .0745.03819.1444.08656.21875.125 .725.37479 1.4454.75853 2.15625,1.15625 .78266.43999 1.54669.87827 2.3125,1.34375 2.04204,1.24203 4.03069,2.57278 5.9375,4 .7151.5349 1.42909,1.09666 2.125,1.65625 .42748.34454.86163.67751 1.28125,1.03125 .56656.47632 1.10429.97606 1.65625,1.46875 1.03448.92341 2.05194,1.86444 3.03125,2.84375 .63022.63058 1.23675,1.28479 1.84375,1.9375l.03125.03125c.28068.30218.56813.59944.84375.90625 .70735.78739 1.38911,1.58908 2.0625,2.40625l.5625.6875c.56135.69675 1.11987,1.40792 1.65625,2.125 .66839.89519 1.30906,1.79303 1.9375,2.71875 .8779,1.29319 1.73386,2.61892 2.53125,3.96875 .45439.76858.88533,1.55773 1.3125,2.34375 1.14403,2.1051 2.18482,4.24714 3.125,6.46875 .41211.97313.81633,1.9435 1.1875,2.9375 .03791.10148.05627.21081.09375.3125 .32958.89463.6418,1.80824.9375,2.71875 .04063.12504.08501.24967.125.375 .11505.36082.20285.73055.3125,1.09375 .2693.89198.54495,1.78171.78125,2.6875 .06503.24927.125.49972.1875.75 .16007.6401.29417,1.29095.4375,1.9375 .17687.79784.34904,1.59902.5,2.40625 .00788.04215.02345.08282.03125.125 .01339.07232.01807.14636.03125.21875 .16988.93277.3341,1.86797.46875,2.8125 .00897.06297.02243.12448.03125.1875 .02893.20674.03527.41772.0625.625 .11459.87239.2285,1.74339.3125,2.625 .10428,1.09564.19375,2.20385.25,3.3125 .06319,1.25541.09375,2.54148.09375,3.8125 0,2.56286-.12124,5.06624-.375,7.5625-.00104.01026.00104.02099 0,.03125-.12634,1.23766-.28232,2.46853-.46875,3.6875-.00155.01017.00155.02108 0,.03125-.18692,1.2188-.41078,2.42641-.65625,3.625-.00205.01001.00205.02124 0,.03125-.12298.59923-.26393,1.18752-.40625,1.78125-.13757.59506-.28571,1.19175-.4375,1.78125-.00251.00978.00252.02147 0,.03125-.30347,1.17658-.64104,2.34671-1,3.5-.00296.00953.00296.02172 0,.03125-.72181,2.31581-1.56363,4.5999-2.5,6.8125-.94018,2.22161-1.98097,4.36365-3.125,6.46875-.00439.00808.00439.02317 0,.03125-1.14045,2.09669-2.38839,4.12509-3.71875,6.09375-.00488.00723.00489.02402 0,.03125-.66325.98075-1.3544,1.92835-2.0625,2.875-.0051.00682.0051.02443 0,.03125-.70862.9467-1.46679,1.87021-2.21875,2.78125-.00518.00628.00519.02497 0,.03125-3.02474,3.66229-6.39924,7.0389-10.0625,10.0625-3.66903,3.02832-7.63379,5.71218-11.84375,8-2.1051,1.14403-4.27839,2.18482-6.5,3.125s-4.48695,1.77623-6.8125,2.5c-1.16282.36193-2.34476.6945-3.53125,1-4.7458,1.22187-9.6878,1.99315-14.75,2.25-1.26556.06422-2.53107.09375-3.8125.09375s-2.54694-.02953-3.8125-.09375c-5.0622-.25708-10.0042-1.0271-14.75-2.25-1.18649-.3055-2.36843-.63807-3.53125-1-2.32555-.72436-4.591-1.55919-6.8125-2.5s-4.3949-1.98097-6.5-3.125c-1.05249-.57237-2.07273-1.19148-3.09375-1.8125s-2.04048-1.27116-3.03125-1.9375-1.95278-1.3493-2.90625-2.0625c-1.90694-1.42641-3.74076-2.93218-5.5-4.53125-.87406-.79448-1.7272-1.63396-2.5625-2.46875-.84592-.84541-1.66416-1.67732-2.46875-2.5625-.00527-.0058.00527-.02545 0-.03125-.79946-.88004-1.58667-1.76976-2.34375-2.6875s-1.50555-1.85903-2.21875-2.8125-1.39486-1.9178-2.0625-2.90625c-1.3354-1.97612-2.57472-4.0199-3.71875-6.125s-2.18482-4.24714-3.125-6.46875c-.00376-.00888.00375-.02237 0-.03125-.46628-1.10224-.92991-2.21517-1.34375-3.34375-.00338-.00922.00338-.02202 0-.03125-.41674-1.13788-.79437-2.27443-1.15625-3.4375-.35411-1.13771-.66841-2.27781-.96875-3.4375-.02151-.08306-.04128-.16683-.0625-.25-.26945-1.05564-.52632-2.14589-.75-3.21875-.05609-.26964-.1031-.5418-.15625-.8125-.1496-.76056-.31137-1.51258-.4375-2.28125-.06311-.38498-.13034-.7693-.1875-1.15625-.0045-.03042.00446-.06332 0-.09375-.14909-1.01671-.26774-2.03262-.375-3.0625-.01852-.17766-.04524-.35322-.0625-.53125-.10206-1.05377-.16146-2.12084-.21875-3.1875-.00454-.08442-.027-.16551-.03125-.25-.06421-1.26561-.09375-2.53107-.09375-3.8125s.02953-2.54694.09375-3.8125c.06126-1.25301.15495-2.5072.28125-3.75 .00105-.01032-.00105-.02093 0-.03125 .12581-1.23779.28284-2.46839.46875-3.6875 .00156-.01018-.00156-.02107 0-.03125 .1864-1.21894.41129-2.42627.65625-3.625 .00204-.00996-.00204-.02129 0-.03125 .24545-1.1986.54127-2.38564.84375-3.5625 .0025-.00972-.00251-.02153 0-.03125 .30296-1.17673.64153-2.34655 1-3.5 .00293-.00943-.00294-.02182 0-.03125 .36188-1.16278.73951-2.29996 1.15625-3.4375 .31226-.85229.65771-1.69389 1-2.53125 .03888-.09504.08574-.18642.125-.28125 .16826-.40679.32476-.81563.5-1.21875 .27026-.62099.55708-1.23175.84375-1.84375 .19638-.41972.38979-.83459.59375-1.25 .44925-.914.92038-1.82471 1.40625-2.71875 .00432-.00794-.00432-.02331 0-.03125 .57195-1.05249 1.16068-2.07273 1.78125-3.09375 .62508-1.02839 1.26469-2.03637 1.9375-3.03125 .66286-.98093 1.35478-1.92816 2.0625-2.875 .00488-.00653-.00489-.02472 0-.03125 .70825-.94688 1.46715-1.87002 2.21875-2.78125 .00499-.00605-.00499-.0252 0-.03125 .75708-.91726 1.54429-1.80795 2.34375-2.6875 2.3986-2.63887 4.96677-5.10355 7.71875-7.375 3.66903-3.02832 7.63379-5.71218 11.84375-8 2.1051-1.14403 4.27839-2.18482 6.5-3.125s4.48695-1.77623 6.8125-2.5c1.16282-.36193 2.34476-.6945 3.53125-1 4.7458-1.22187 9.6878-1.99315 14.75-2.25 1.26556-.06422 2.53107-.09375 3.8125-.09375z" fill="#c0c0c0"/>
<path d="m401.71653,236.50446c-94.47087,1e-005-171.125,76.68539-171.125,171.15625s76.65415,171.125 171.125,171.125 171.15624-76.65415 171.15624-171.125-76.68538-171.15625-171.15624-171.15625zm.03124,96.84375c1.28144,0 2.54695.02953 3.8125.09375 5.06221.25708 10.00421,1.0271 14.75,2.25 1.18649.3055 2.36843.63807 3.53126,1 2.32555.72436 4.591,1.55919 6.8125,2.5 3.3324,1.41027 6.5305,3.07559 9.59374,4.9375 2.04204,1.24203 4.03069,2.57278 5.9375,4 2.86042,2.13961 5.57268,4.47893 8.09376,7 5.04171,5.04465 9.34951,10.80754 12.78124,17.125 1.14403,2.1051 2.18483,4.24714 3.125,6.46875 3.29686,7.78505 5.30001,16.25576 5.75,25.125 .0632,1.25541.09376,2.54148.09376,3.8125 0,2.56286-.12125,5.06624-.375,7.5625-.00104.01026.00103.02099 0,.03125-.12635,1.23766-.28233,2.46853-.46876,3.6875-.00155.01017.00156.02108 0,.03125-.18691,1.2188-.41077,2.42641-.65624,3.625-.00205.01001.00204.02124 0,.03125-.24597,1.19846-.54076,2.38579-.84376,3.5625-.0025.00978.00253.02147 0,.03125-.30347,1.17658-.64103,2.34671-1,3.5-.00295.00953.00296.02172 0,.03125-1.44657,4.64105-3.34158,9.07958-5.625,13.28125-.00439.00808.0044.02317 0,.03125-1.14044,2.09669-2.38839,4.12509-3.71874,6.09375-.00489.00723.00488.02402 0,.03125-.66326.98075-1.3544,1.92835-2.0625,2.875-.00511.00682.0051.02443 0,.03125-.70862.9467-1.4668,1.87021-2.21876,2.78125-.00517.00628.0052.02497 0,.03125-1.50986,1.82812-3.10608,3.57483-4.78124,5.25-.84542.84592-1.70858,1.66417-2.59376,2.46875-.87961.79953-1.77017,1.5866-2.6875,2.34375-3.66903,3.02832-7.63378,5.71218-11.84374,8-2.1051,1.14403-4.2784,2.18482-6.5,3.125s-4.48695,1.77623-6.8125,2.5c-1.16283.36193-2.34477.6945-3.53126,1-4.74579,1.22187-9.68779,1.99315-14.75,2.25-1.26555.06422-2.53106.09375-3.8125.09375s-2.54694-.02953-3.8125-.09375c-5.0622-.25708-10.0042-1.0271-14.75-2.25-1.18648-.3055-2.36842-.63807-3.53124-1-2.32556-.72436-4.59101-1.55919-6.8125-2.5-3.33241-1.41027-6.53051-3.07559-9.59376-4.9375-2.04203-1.24203-4.03068-2.57278-5.9375-4-3.82017-2.85752-7.32895-6.06845-10.53124-9.59375-.79947-.88004-1.58668-1.76976-2.34376-2.6875-3.02859-3.66931-5.71194-7.63355-8-11.84375-1.14402-2.1051-2.18482-4.24714-3.125-6.46875-.00375-.00888.00376-.02237 0-.03125-.46627-1.10224-.92991-2.21517-1.34374-3.34375-.00338-.00922.00337-.02202 0-.03125-.41675-1.13788-.79438-2.27443-1.15626-3.4375-1.81256-5.82354-2.93096-11.94249-3.25-18.28125-.06421-1.26561-.09374-2.53107-.09374-3.8125 0-2.57346.11916-5.08747.375-7.59375 .12581-1.23779.28284-2.46839.46874-3.6875 .00156-.01018-.00155-.02107 0-.03125 .1864-1.21894.4113-2.42627.65626-3.625 .00204-.00996-.00205-.02129 0-.03125 .24545-1.1986.54126-2.38564.84374-3.5625 .0025-.00972-.0025-.02153 0-.03125 .30296-1.17673.64153-2.34655 1-3.5 .00293-.00943-.00294-.02182 0-.03125 .36188-1.16278.73951-2.29996 1.15626-3.4375 1.25351-3.42136 2.74727-6.7101 4.46874-9.875 .57196-1.05249 1.16069-2.07273 1.78126-3.09375 .62508-1.02839 1.26468-2.03637 1.9375-3.03125 .66286-.98093 1.35478-1.92816 2.0625-2.875 .00488-.00653-.00489-.02472 0-.03125 .70825-.94688 1.46715-1.87002 2.21874-2.78125 .005-.00605-.00499-.0252 0-.03125 .75708-.91726 1.54429-1.80795 2.34376-2.6875s1.59714-1.72214 2.4375-2.5625c.84541-.84592 1.70857-1.66417 2.59374-2.46875 .87962-.79953 1.77018-1.5866 2.6875-2.34375 3.66904-3.02832 7.63379-5.71218 11.84376-8 2.10509-1.14403 4.27839-2.18482 6.5-3.125s4.48694-1.77623 6.8125-2.5c1.16282-.36193 2.34476-.6945 3.53124-1 4.7458-1.22187 9.6878-1.99315 14.75-2.25 1.26556-.06422 2.53107-.09375 3.8125-.09375z" fill="#a9a9a9" opacity=".79394"/>
<path d="m401.71653,258.78571c-82.16916-1e-005-148.84376,66.70585-148.84376,148.875s66.67461,148.84375 148.84376,148.84375 148.875-66.67461 148.875-148.84375-66.70585-148.875-148.875-148.875zm.03124,74.5625c41.00572-1e-005 74.28126,33.30679 74.28126,74.3125s-33.27554,74.28125-74.28126,74.28125-74.28124-33.30679-74.28124-74.3125 33.27553-74.28125 74.28124-74.28125z" fill="url(#radialGradient2340)" opacity=".79394"/>
<path d="m388.875,274.48438c-60.099,0-108.87501,48.76554-108.875,108.85588s48.77602,108.89412 108.875,108.89412 108.87501-48.76555 108.875-108.85589v-.03823c0-60.09034-48.77599-108.85588-108.875-108.85588zm0,24.6531c46.57461,1e-005 84.3743,37.73998 84.3743,84.24101s-37.7997,84.20278-84.3743,84.20278-84.3743-37.73998-84.3743-84.24101 37.7997-84.20278 84.3743-84.20278z" fill="#696969" filter="url(#filter3340)" opacity=".58788" transform="matrix(.83697,0,0,.8358,76.25582,87.23518)"/>
<path d="m401.73215,318.62946c-49.059,0-88.87501,39.87045-88.875,89s39.81602,89.03125 88.875,89.03125 88.87501-39.87045 88.875-89v-.03125c0-49.12955-39.81599-89-88.875-89zm0,20.15625c38.019,1e-005 68.875,30.85601 68.875,68.875s-30.85601,68.84375-68.875,68.84375-68.875-30.85601-68.875-68.875 30.85601-68.84375 68.875-68.84375z" fill="#c0c0c0"/>
<path d="m417.4375,175.3125c-2.40761,18.12082-17.91084,32.125-36.6875,32.125-17.82254,1e-005-32.72374-12.59753-36.25-29.375-13.05912,2.8118-25.65303,6.85014-37.6875,11.96875 6.59543,16.77035.1373,36.31297-15.9375,45.59375-14.92546,8.61721-33.38787,5.68118-44.9375-6.0625-8.09997,7.53123-15.63753,15.6906-22.46875,24.40625 14.38109,11.16882 18.67245,31.53809 9.3125,47.75-8.9272,15.46236-27.34017,22.07308-43.65625,16.6875-3.91032,12.02029-6.77907,24.51463-8.46875,37.375 18.74222,1.82534 33.40625,17.62407 33.40625,36.84375 1e-005,18.10476-13.01226,33.16068-30.1875,36.375 1.27795,5.75903 2.75941,11.42917 4.5,17 3.35961-.88443 6.79511-1.29527 10.1875-1.21875 12.5076.28213 24.57292,6.91208 31.28125,18.53125 9.1309,15.8152 5.26366,35.5792-8.28125,46.90625 7.55764,9.9478 15.97857,19.20846 25.15625,27.65625 6.97835-8.45322 17.22796-13.19945 27.78125-13.4375 6.5516-.14778 13.19502,1.45486 19.28125,4.96875 16.87547,9.74303 23.17121,30.78021 14.875,48.0625 11.47456,4.75069 23.45238,8.51948 35.84375,11.1875 3.52626-16.77746 18.42747-29.375 36.25-29.375 18.77665-3e-005 34.27988,14.00417 36.6875,32.125 11.22039-1.52949 22.16481-3.92513 32.75-7.15625-5.53756-16.37811 1.05171-34.93305 16.59375-43.90625 5.53294-3.19444 11.5606-4.78346 17.53125-4.9375 12.00396-.3097 23.78515,5.25309 31.09375,15.5 10.67427-8.07824 20.55433-17.16218 29.5-27.09375-12.83087-11.43588-16.33532-30.69065-7.40625-46.15625 6.70834-11.61918 18.77365-18.24913 31.28125-18.53125 4.98942-.11254 10.05708.79237 14.875,2.78125 4.3232-10.70375 7.78842-21.85142 10.3125-33.34375-16.09754-4.0234-28.03125-18.5974-28.03125-35.9375 3e-005-18.44179 13.50638-33.74143 31.15625-36.5625-2.44861-18.8367-7.39681-36.88211-14.5-53.8125-17.27746,8.27773-38.293,1.99215-48.03125-14.875-9.10417-15.76889-5.26652-35.4694 8.1875-46.8125-8.07675-8.69949-16.87718-16.73656-26.3125-23.96875-11.35627,13.37287-30.98903,17.1753-46.71875,8.09375-14.78347-8.53524-21.4615-25.74519-17.3125-41.5-11.27509-3.57995-22.96024-6.23825-34.96875-7.875zm-28.5625,133.75c1.28143,0 2.54694.02953 3.8125.09375 5.0622.25708 10.0042,1.0271 14.75,2.25 1.18649.3055 2.36843.63807 3.53125,1 2.32555.72436 4.591,1.55919 6.8125,2.5 1.1108.47009 2.20031.9754 3.28125,1.5 .54047.2623 1.09201.53738 1.625.8125 .0745.03819.1444.08656.21875.125 .725.37479 1.4454.75853 2.15625,1.15625 .78266.43999 1.54669.87827 2.3125,1.34375 2.04204,1.24203 4.03069,2.57278 5.9375,4 .7151.5349 1.42909,1.09666 2.125,1.65625 .42748.34454.86163.67751 1.28125,1.03125 .56656.47632 1.10429.97606 1.65625,1.46875 1.03448.92341 2.05194,1.86444 3.03125,2.84375 .63022.63058 1.23675,1.28479 1.84375,1.9375l.03125.03125c.28068.30218.56813.59944.84375.90625 .70735.78739 1.38911,1.58908 2.0625,2.40625l.5625.6875c.56135.69675 1.11987,1.40792 1.65625,2.125 .66839.89519 1.30906,1.79303 1.9375,2.71875 .8779,1.29319 1.73386,2.61892 2.53125,3.96875 .45439.76858.88533,1.55773 1.3125,2.34375 1.14403,2.1051 2.18482,4.24714 3.125,6.46875 .41211.97313.81633,1.9435 1.1875,2.9375 .03791.10148.05627.21081.09375.3125 .32958.89463.6418,1.80824.9375,2.71875 .04063.12504.08501.24967.125.375 .11505.36082.20285.73055.3125,1.09375 .2693.89198.54495,1.78171.78125,2.6875 .06503.24927.125.49972.1875.75 .16007.6401.29417,1.29095.4375,1.9375 .17687.79784.34904,1.59902.5,2.40625 .00788.04215.02345.08282.03125.125 .01339.07232.01807.14636.03125.21875 .16988.93277.3341,1.86797.46875,2.8125 .00897.06297.02243.12448.03125.1875 .02893.20674.03527.41772.0625.625 .11459.87239.2285,1.74339.3125,2.625 .10428,1.09564.19375,2.20385.25,3.3125 .06319,1.25541.09375,2.54148.09375,3.8125 0,2.56286-.12124,5.06624-.375,7.5625-.00104.01026.00104.02099 0,.03125-.12634,1.23766-.28232,2.46853-.46875,3.6875-.00155.01017.00155.02108 0,.03125-.18692,1.2188-.41078,2.42641-.65625,3.625-.00205.01001.00205.02124 0,.03125-.12298.59923-.26393,1.18752-.40625,1.78125-.13757.59506-.28571,1.19175-.4375,1.78125-.00251.00978.00252.02147 0,.03125-.30347,1.17658-.64104,2.34671-1,3.5-.00296.00953.00296.02172 0,.03125-.72181,2.31581-1.56363,4.5999-2.5,6.8125-.94018,2.22161-1.98097,4.36365-3.125,6.46875-.00439.00808.00439.02317 0,.03125-1.14045,2.09669-2.38839,4.12509-3.71875,6.09375-.00488.00723.00489.02402 0,.03125-.66325.98075-1.3544,1.92835-2.0625,2.875-.0051.00682.0051.02443 0,.03125-.70862.9467-1.46679,1.87021-2.21875,2.78125-.00518.00628.00519.02497 0,.03125-3.02474,3.66229-6.39924,7.0389-10.0625,10.0625-3.66903,3.02832-7.63379,5.71218-11.84375,8-2.1051,1.14403-4.27839,2.18482-6.5,3.125s-4.48695,1.77623-6.8125,2.5c-1.16282.36193-2.34476.6945-3.53125,1-4.7458,1.22187-9.6878,1.99315-14.75,2.25-1.26556.06422-2.53107.09375-3.8125.09375s-2.54694-.02953-3.8125-.09375c-5.0622-.25708-10.0042-1.0271-14.75-2.25-1.18649-.3055-2.36843-.63807-3.53125-1-2.32555-.72436-4.591-1.55919-6.8125-2.5s-4.3949-1.98097-6.5-3.125c-1.05249-.57237-2.07273-1.19148-3.09375-1.8125s-2.04048-1.27116-3.03125-1.9375-1.95278-1.3493-2.90625-2.0625c-1.90694-1.42641-3.74076-2.93218-5.5-4.53125-.87406-.79448-1.7272-1.63396-2.5625-2.46875-.84592-.84541-1.66416-1.67732-2.46875-2.5625-.00527-.0058.00527-.02545 0-.03125-.79946-.88004-1.58667-1.76976-2.34375-2.6875s-1.50555-1.85903-2.21875-2.8125-1.39486-1.9178-2.0625-2.90625c-1.3354-1.97612-2.57472-4.0199-3.71875-6.125s-2.18482-4.24714-3.125-6.46875c-.00376-.00888.00375-.02237 0-.03125-.46628-1.10224-.92991-2.21517-1.34375-3.34375-.00338-.00922.00338-.02202 0-.03125-.41674-1.13788-.79437-2.27443-1.15625-3.4375-.35411-1.13771-.66841-2.27781-.96875-3.4375-.02151-.08306-.04128-.16683-.0625-.25-.26945-1.05564-.52632-2.14589-.75-3.21875-.05609-.26964-.1031-.5418-.15625-.8125-.1496-.76056-.31137-1.51258-.4375-2.28125-.06311-.38498-.13034-.7693-.1875-1.15625-.0045-.03042.00446-.06332 0-.09375-.14909-1.01671-.26774-2.03262-.375-3.0625-.01852-.17766-.04524-.35322-.0625-.53125-.10206-1.05377-.16146-2.12084-.21875-3.1875-.00454-.08442-.027-.16551-.03125-.25-.06421-1.26561-.09375-2.53107-.09375-3.8125s.02953-2.54694.09375-3.8125c.06126-1.25301.15495-2.5072.28125-3.75 .00105-.01032-.00105-.02093 0-.03125 .12581-1.23779.28284-2.46839.46875-3.6875 .00156-.01018-.00156-.02107 0-.03125 .1864-1.21894.41129-2.42627.65625-3.625 .00204-.00996-.00204-.02129 0-.03125 .24545-1.1986.54127-2.38564.84375-3.5625 .0025-.00972-.00251-.02153 0-.03125 .30296-1.17673.64153-2.34655 1-3.5 .00293-.00943-.00294-.02182 0-.03125 .36188-1.16278.73951-2.29996 1.15625-3.4375 .31226-.85229.65771-1.69389 1-2.53125 .03888-.09504.08574-.18642.125-.28125 .16826-.40679.32476-.81563.5-1.21875 .27026-.62099.55708-1.23175.84375-1.84375 .19638-.41972.38979-.83459.59375-1.25 .44925-.914.92038-1.82471 1.40625-2.71875 .00432-.00794-.00432-.02331 0-.03125 .57195-1.05249 1.16068-2.07273 1.78125-3.09375 .62508-1.02839 1.26469-2.03637 1.9375-3.03125 .66286-.98093 1.35478-1.92816 2.0625-2.875 .00488-.00653-.00489-.02472 0-.03125 .70825-.94688 1.46715-1.87002 2.21875-2.78125 .00499-.00605-.00499-.0252 0-.03125 .75708-.91726 1.54429-1.80795 2.34375-2.6875 2.3986-2.63887 4.96677-5.10355 7.71875-7.375 3.66903-3.02832 7.63379-5.71218 11.84375-8 2.1051-1.14403 4.27839-2.18482 6.5-3.125s4.48695-1.77623 6.8125-2.5c1.16282-.36193 2.34476-.6945 3.53125-1 4.7458-1.22187 9.6878-1.99315 14.75-2.25 1.26556-.06422 2.53107-.09375 3.8125-.09375z" filter="url(#filter3390)" opacity=".88485" transform="matrix(.58268,.15613,-.16297,.6082,379.73948,291.77807)"/>
<path d="m594.96114,464.34674c-4.40267,10.57859-16.09567,16.53254-27.50617,13.4751-10.83067-2.90207-17.84248-12.9552-17.26373-23.68672-8.39209-.42413-16.70045-.02994-24.84409,1.10935 1.28752,11.22698-5.80728,22.0068-17.08139,25.00805-10.46802,2.78665-21.21127-1.99713-26.32485-10.98757-6.14404,3.24058-12.04819,6.95304-17.61336,11.1173 6.92751,9.10347 6.23104,22.13412-2.08687,30.42496-7.93333,7.90754-20.1952,8.91155-29.23676,2.99427-4.32622,6.64055-8.09638,13.73769-11.20941,21.24843 11.09345,4.15691 17.44183,16.10948 14.324,27.74537-2.93696,10.96091-13.28683,17.95719-24.24557,17.10652-.15763,3.6947-.17717,7.36872-.02313,11.02481 2.18509.0116 4.33948.32228 6.38861.92099 7.55504,2.20744 13.81156,8.18593 16.00331,16.31268 2.98326,11.06157-2.57298,22.3973-12.64163,27.04933 2.979,7.25318 6.59409,14.23093 10.80091,20.83976 5.61201-3.98142 12.61059-5.18589 19.06238-3.61161 4.00536.97734 7.78255,3.02936 10.9111,6.14776 8.67462,8.64643 9.08785,22.40781 1.24274,31.5199 6.20237,4.74457 12.86987,8.97661 19.96723,12.60958 4.86455-9.58315 15.96352-14.78352 26.7942-11.88145 11.41049,3.05741 18.55996,14.0602 17.08348,25.42287 7.06669.90106 14.10619,1.23279 21.06292,1.00022-.70829-10.81725 6.30597-20.97776 17.20644-23.87955 3.88055-1.03303 7.8013-1.01355 11.45463-.1346 7.34499,1.76713 13.60196,7.05327 16.38111,14.44698 7.79716-3.15257 15.27483-7.04335 22.32217-11.59944-5.94212-9.01273-4.94824-21.2405 2.98676-29.14968 5.96149-5.94212 14.36904-7.99138 22.01562-6.12555 3.05031.7443 5.98311,2.11732 8.5883,4.10594 4.36355-5.77628 8.27773-11.961 11.6759-18.50763-9.12973-5.05702-14.01759-15.82353-11.20466-26.3215 2.99165-11.16494 13.68132-18.22832 24.86469-17.06229 1.5677-11.80275 1.48804-23.53344-.08208-34.93999-11.84225,2.19816-23.59364-5.02923-26.77533-16.82655-2.97452-11.02919 2.55342-22.33129 12.56946-27.00785-3.49697-6.58195-7.54117-12.8807-12.10176-18.79556-9.07051,6.24699-21.61809,5.35221-29.70374-2.70719-7.59926-7.57459-8.86566-19.08115-3.78857-27.94377-6.27108-4.0033-12.94087-7.51539-19.97286-10.46167zm-39.05431,76.32347c.77872.20866 1.54297.4326 2.30163.67755 3.03457.97993 5.91289,2.25083 8.5985,3.76395 .67147.37816 1.33578.77196 1.98371,1.18042 1.29572.81721 2.53699,1.69152 3.73437,2.62283 .59877.46547 1.17889.9488 1.75067,1.44241 .28589.24681.57643.50316.8557.75651 .03908.03524.07371.07591.11266.11129 .37978.34496.75532.69459 1.12277,1.05112 .40425.39381.79745.78356 1.18731,1.19007 1.03947,1.08445 2.03208,2.21393 2.95932,3.38848 .34779.44027.69055.89664 1.02266,1.34874 .2039.27819.41371.55047.61133.83295 .26702.38063.51274.77074.76823,1.1589 .47886.72749.9445,1.46289 1.38077,2.21523 .28068.48439.54314.97922.80613,1.47322l.01392.02401c.12155.22865.24801.45541.36573.68604 .30212.59188.58638,1.18825.86303,1.79262l.23031.50782c.2281.51323.45214,1.03472.66177,1.5562 .26096.65079.50464,1.29868.73637,1.96146 .32372.92586.62882,1.86786.89441,2.81491 .15146.5393.28532,1.08723.4174,1.63266 .35374,1.46075.63873,2.92704.84969,4.42513 .09257.65625.1808,1.30954.24511,1.97177 .00657.06761 0,.1368.00628.20446 .05515.59528.09668,1.19924.12868,1.79863 .0044.08231.01115.165.01513.24738 .01138.23718.00476.47532.01247.71306 .01896.58387.04214,1.16741.03879,1.75426-.00091.16151-.0051.32289-.00772.4846-.00656.41359-.03065.82946-.04843,1.24423-.02194.51183-.04729,1.02491-.0865,1.5382-.00205.02679.00082.05395-.00128.08076-.0036.04597-.01276.09156-.0165.13753-.04808.59237-.09999,1.1853-.17139,1.77906-.00476.03958-.00657.07901-.01143.1186-.01595.12987-.04633.25863-.06341.38856-.07187.54682-.14395,1.09269-.23592,1.64011-.11436.68029-.23977,1.36579-.38543,2.04614-.16525.77034-.35531,1.55392-.5615,2.32341-.41574,1.5516-.89552,3.04744-1.45467,4.5174l-.00507.01891c-.27755.72873-.57201,1.44852-.88305,2.15615l-.00507.01891c-.31131.70745-.64324,1.40211-.98685,2.08778l-.00507.01892c-.17194.34276-.35302.67596-.53583,1.01225s-.36695.67498-.55482,1.00716l-.00507.01891c-.37528.66291-.77025,1.31636-1.17547,1.95613l-.00507.01891c-.81431,1.2845-1.69641,2.53025-2.62436,3.71732s-1.9117,2.31926-2.94842,3.40743c-.00397.00419-.00109.01475-.00507.01893-1.03316,1.08367-2.12058,2.10848-3.2484,3.08371-.00414.00359-.00092.01535-.00507.01892-.56215.48577-1.13587.94692-1.71975,1.40474-.00421.0033-.00086.01561-.00507.01892-.5842.45775-1.19475.89341-1.7995,1.32253-.00417.00296-.0009.01596-.00507.01892-2.43222,1.72468-5.03064,3.21945-7.74728,4.45349-2.7209,1.23597-5.56565,2.21523-8.49516,2.91479-1.46484.34985-2.95438.62608-4.45696.83353s-3.01483.34474-4.54547.40425c-.76535.02977-1.53757.03866-2.30815.03041-3.08221-.03303-6.21056-.37079-9.3285-1.03957-.7795-.1672-1.55333-.35538-2.33205-.56404s-1.54297-.4326-2.30163-.67755c-3.03457-.97993-5.91289-2.25083-8.59851-3.76395-.67146-.37816-1.33577-.77196-1.98371-1.18042-1.29572-.81721-2.53698-1.69152-3.73436-2.62282s-2.34941-1.91495-3.44308-2.95034c-.54675-.51789-1.06632-1.05884-1.58604-1.60107s-1.03378-1.10184-1.52777-1.66657c-.49213-.56513-.96781-1.13487-1.43154-1.72191-.92745-1.17408-1.79758-2.3843-2.60726-3.63886-.40228-.62331-.78454-1.27047-1.15674-1.91188-.37692-.64956-.73921-1.28645-1.08456-1.95336-.00226-.00438.00734-.01455.00508-.01892-.34308-.66297-.67713-1.32981-.98832-2.00869s-.61335-1.37064-.89208-2.06402-.53655-1.38819-.78192-2.09533c-.49095-1.41381-.91253-2.85295-1.26626-4.3137s-.63873-2.92704-.84969-4.42513c-.00084-.00599.00591-.01293.00507-.01892-.10455-.74323-.20576-1.49251-.27417-2.24316-.00055-.00614.00563-.01278.00507-.01892-.06866-.75675-.11377-1.50632-.14501-2.26939-.03063-.74645-.03668-1.48786-.03107-2.23885 .0004-.05379.00198-.10773.00258-.16154 .0075-.68297.02826-1.38486.06637-2.0708 .00965-.17238.02523-.34481.03685-.51735 .03247-.48481.05615-.96644.1042-1.45234 .02409-.24335.04559-.48697.07363-.73054 .0022-.01915.01297-.03761.0152-.05676 .07433-.63981.16703-1.27418.26891-1.91515 .01757-.11058.02981-.22121.04821-.33181 .10892-.65458.24592-1.31027.38414-1.96537 .01094-.05186.01044-.1046.02157-.15645 .16628-.77668.35362-1.54761.56149-2.32341s.43112-1.53715.67544-2.29288c.24049-.74862.50088-1.49267.77924-2.22451l.00507-.01892c.27725-.72889.57231-1.44835.88305-2.15614l.00507-.01892c.31101-.70762.64352-1.40194.98685-2.08778l.00507-.01892c.34359-.68569.71592-1.35617 1.09065-2.0194l.00507-.01892c.375-.66308.77051-1.31618 1.17546-1.95612l.00508-.01892c.40853-.64505.82249-1.27202 1.26027-1.89285 .32803-.46514.67448-.9184 1.01833-1.36962l.12158-.14992c.16824-.21888.32966-.44092.50155-.65644 .26497-.33195.53835-.65501.81184-.97885l.56359-.66008c.42128-.4802.85532-.95484 1.29561-1.41699 .00392-.00411.00116-.01482.00507-.01893 .51831-.54406 1.04158-1.06586 1.58433-1.58296 .54668-.52081 1.09889-1.02692 1.66915-1.51967 .56193-.48594 1.13607-.94675 1.71975-1.40474 .00402-.00315.00104-.01575.00507-.01892 .584-.45792 1.19493-.89323 1.7995-1.32253 .00401-.00285.00105-.01606.00507-.01891 .60887-.43205 1.23174-.84311 1.86025-1.24542 1.8857-1.20705 3.84619-2.28102 5.88703-3.20808 2.7209-1.23597 5.56565-2.21523 8.49516-2.91479 1.46484-.34985 2.95438-.62608 4.45696-.83352s3.01483-.34475 4.54547-.40426c.76535-.02977 1.53757-.03866 2.30815-.03041 3.0822.03303 6.21056.37079 9.3285,1.03957 .77949.1672 1.55333.35538 2.33205.56404z" fill="#c0c0c0"/>
<path d="m571.60739,482.03694c-57.40952-15.38282-116.43183,18.562-131.75695,75.75614s18.82237,116.08347 76.23186,131.4663 116.44575-18.538 131.77087-75.73213-18.83627-116.10747-76.24578-131.49031zm-15.69107,58.63581c.77872.20866 1.54298.43261 2.30162.67755 3.03459.97993 5.9129,2.25083 8.59852,3.76396 .67147.37815 1.33578.77196 1.98371,1.18041 1.29572.81721 2.537,1.69152 3.73437,2.62284 1.79631,1.39641 3.46964,2.92538 5.02911,4.55139 1.03945,1.08445 2.03207,2.21393 2.95931,3.38848 1.39117,1.76112 2.65992,3.61902 3.78299,5.55583 2.24548,3.87506 3.92845,8.06545 4.98908,12.44893 .35372,1.46075.63873,2.92705.84968,4.42513 .74059,5.25003.58378,10.7045-.58154,16.14735-.16525.77034-.35531,1.55392-.56149,2.32342-.41575,1.55159-.89554,3.04743-1.45469,4.51739l-.00506.01892c-.27756.72872-.57202,1.44852-.88306,2.15615l-.00506.01891c-.3113.70744-.64324,1.4021-.98685,2.08777l-.00507.01893c-.34389.68551-.71564,1.35634-1.09066,2.0194l-.00507.01892c-.37528.6629-.77023,1.31636-1.17546,1.95613l-.00507.01891c-1.63195,2.57421-3.50356,4.9528-5.57278,7.12475-.00398.00418-.00109.01475-.00507.01892-1.03317,1.08367-2.12059,2.10848-3.24839,3.08372-.00415.00359-.00093.01534-.00507.01892-.56216.48577-1.13589.94692-1.71976,1.40473-.00421.0033-.00086.01562-.00507.01892-.5842.45776-1.19475.89341-1.7995,1.32253-.00417.00296-.0009.01596-.00507.01892-1.2141.86092-2.46747,1.65849-3.75721,2.39989-.65098.37448-1.30825.72931-1.9767,1.07228-.66423.34082-1.3331.67231-2.01338.98133-2.72091,1.23596-5.56564,2.21522-8.49515,2.91479-1.46484.34984-2.95438.62607-4.45695.83353s-3.01485.34473-4.54549.40424c-.76535.02977-1.53756.03866-2.30815.03042-3.0822-.03303-6.21055-.3708-9.3285-1.03958-.77948-.16719-1.55332-.35538-2.33204-.56404s-1.54298-.4326-2.30164-.67755c-3.03457-.97993-5.91289-2.25082-8.59851-3.76395-.67146-.37815-1.33577-.77196-1.98369-1.18041-1.29573-.81722-2.53701-1.69152-3.73438-2.62283-1.79632-1.39642-3.46964-2.92539-5.02912-4.55141-1.03944-1.08445-2.03207-2.21392-2.9593-3.38847-1.85795-2.35204-3.46934-4.86732-4.84349-7.52303-.34307-.66296-.67712-1.3298-.98832-2.00869-1.24523-2.71461-2.2328-5.55155-2.94026-8.47305-.35372-1.46074-.63873-2.92704-.84968-4.42512-.00084-.00599.0059-.01293.00507-.01893-.10455-.74323-.20577-1.49251-.27416-2.24316-.00056-.00613.00562-.01278.00506-.01891-.06866-.75676-.11378-1.50633-.14502-2.26939-.15678-3.82081.15619-7.70743.99059-11.59697 .16629-.77667.35362-1.54761.5615-2.32341 .41747-1.55801.89771-3.06062 1.45975-4.53631 .27725-.72889.5723-1.44835.88303-2.15614l.00507-.01892c.31102-.70762.64355-1.40193.98686-2.08777l.00507-.01893c.3436-.68568.71592-1.35616 1.09065-2.0194l.00507-.01892c.375-.66307.77051-1.31617 1.17547-1.95612l.00507-.01892c.40854-.64504.8225-1.27201 1.26029-1.89284 1.31676-1.86723 2.75801-3.61506 4.31756-5.25083 .51831-.54406 1.04158-1.06587 1.58433-1.58296 .54668-.52082 1.09888-1.02692 1.66914-1.51968 .56195-.48594 1.13609-.94674 1.71976-1.40473 .00402-.00316.00103-.01576.00507-.01892 .584-.45792 1.19493-.89324 1.79949-1.32253 .00402-.00285.00106-.01607.00507-.01892 .60887-.43205 1.23174-.84311 1.86026-1.24541s1.24994-.78255 1.89694-1.15448 1.30826-.7293 1.97669-1.07228c.66425-.34082 1.33311-.67231 2.01339-.98133 2.72092-1.23596 5.56565-2.21523 8.49516-2.91479 1.46484-.34984 2.95438-.62607 4.45696-.83352s3.01484-.34475 4.54548-.40425c.76535-.02977 1.53756-.03866 2.30813-.03042 3.08222.03303 6.21056.37079 9.32851,1.03958 .77949.16719 1.55333.35538 2.33205.56403z" fill="#a9a9a9" opacity=".79394"/>
<path d="m567.99291,495.52637c-49.93382-13.37974-101.27273,16.14831-114.60226,65.8948s16.37232,100.96907 66.30613,114.34879 101.28665-16.12432 114.61618-65.8708-16.38624-100.99307-66.32005-114.37279zm-12.07659,45.14638c24.91899,6.67703 39.73733,32.25979 33.08536,57.08529s-32.27135,39.55273-57.19033,32.8757-39.73732-32.25978-33.08535-57.08528 32.27134-39.55273 57.19032-32.87571z" fill="url(#radialGradient3406)" opacity=".79394"/>
<path d="m388.875,274.48438c-60.099,0-108.87501,48.76554-108.875,108.85588s48.77602,108.89412 108.875,108.89412 108.87501-48.76555 108.875-108.85589v-.03823c0-60.09034-48.77599-108.85588-108.875-108.85588zm0,24.6531c46.57461,1e-005 84.3743,37.73998 84.3743,84.24101s-37.7997,84.20278-84.3743,84.20278-84.3743-37.73998-84.3743-84.24101 37.7997-84.20278 84.3743-84.20278z" fill="#696969" filter="url(#filter3340)" opacity=".58788" transform="matrix(.50862,.13628,-.13558,.506,398.04098,338.67174)"/>
<path d="m558.29451,531.75925c-29.81292-7.98834-60.47674,9.66655-68.44657,39.41034s9.75331,60.38422 39.56623,68.37257 60.47674-9.66654 68.44657-39.41034l.00507-.01893c7.96982-29.74379-9.75837-60.36528-39.5713-68.35364zm-3.26976,12.20291c23.10397,6.1907 36.84953,29.89574 30.68207,52.91302s-29.91893,36.65475-53.02289,30.46407-36.84954-29.89573-30.68207-52.91302 29.91893-36.65476 53.02289-30.46407z" fill="#c0c0c0"/>
</g>
</svg>
